<svg width="60" height="60" viewBox="0 0 60 60" fill="none" xmlns="http://www.w3.org/2000/svg">
<g filter="url(#filter0_b_0_1)">
<rect width="60" height="60" rx="24" fill="white" fill-opacity="0.08"/>
</g>
<path d="M29.9996 19.872C32.7851 19.872 35.2886 20.8335 36.9746 22.563C38.3619 22.7434 39.6706 23.3099 40.7516 24.198C38.8601 20.223 34.9421 18 29.9996 18C25.1246 18 21.1796 20.22 19.2656 24.183C20.2567 23.3741 21.439 22.8333 22.6991 22.6125C24.3536 20.808 26.9606 19.872 29.9996 19.872Z" fill="white"/>
<path d="M36.0004 36C34.4396 36.0018 32.9399 35.3935 31.8214 34.305L31.8184 34.302C31.6891 34.2049 31.5504 34.1209 31.4044 34.0515C30.9647 33.8474 30.485 33.7444 30.0004 33.75C29.3794 33.75 28.9069 33.9045 28.5979 34.0515C28.4513 34.1209 28.3121 34.2048 28.1824 34.302L28.1794 34.305C27.4741 34.9897 26.6114 35.4906 25.6671 35.7637C24.7229 36.0369 23.726 36.0738 22.7641 35.8713C21.8022 35.6689 20.9048 35.2332 20.1508 34.6026C19.3968 33.9719 18.8092 33.1657 18.4398 32.2548C18.0704 31.3439 17.9305 30.3562 18.0323 29.3785C18.1341 28.4009 18.4745 27.4632 19.0237 26.6479C19.5729 25.8327 20.3139 25.1648 21.1817 24.7031C22.0495 24.2414 23.0174 23.9999 24.0004 24H36.0004C37.5917 24 39.1178 24.6321 40.243 25.7574C41.3682 26.8826 42.0004 28.4087 42.0004 30C42.0004 31.5913 41.3682 33.1174 40.243 34.2426C39.1178 35.3679 37.5917 36 36.0004 36Z" fill="white"/>
<defs>
<filter id="filter0_b_0_1" x="-48" y="-48" width="156" height="156" filterUnits="userSpaceOnUse" color-interpolation-filters="sRGB">
<feFlood flood-opacity="0" result="BackgroundImageFix"/>
<feGaussianBlur in="BackgroundImageFix" stdDeviation="24"/>
<feComposite in2="SourceAlpha" operator="in" result="effect1_backgroundBlur_0_1"/>
<feBlend mode="normal" in="SourceGraphic" in2="effect1_backgroundBlur_0_1" result="shape"/>
</filter>
</defs>
</svg>
